<?xml version="1.0" encoding="UTF-8" standalone="no"?>
<!-- Created with Inkscape (http://www.inkscape.org/) -->

<svg
   xmlns:dc="http://purl.org/dc/elements/1.1/"
   xmlns:cc="http://creativecommons.org/ns#"
   xmlns:rdf="http://www.w3.org/1999/02/22-rdf-syntax-ns#"
   xmlns:svg="http://www.w3.org/2000/svg"
   xmlns="http://www.w3.org/2000/svg"
   xmlns:sodipodi="http://sodipodi.sourceforge.net/DTD/sodipodi-0.dtd"
   xmlns:inkscape="http://www.inkscape.org/namespaces/inkscape"
   width="496.57141"
   height="496.57141"
   viewBox="0 0 131.38452 131.38452"
   id="svg2"
   version="1.1"
   inkscape:version="0.92 r13675"
   sodipodi:docname="rolekit_logo.svg">
  <defs
     id="defs4" />
  <sodipodi:namedview
     id="base"
     pagecolor="#ffffff"
     bordercolor="#666666"
     borderopacity="1.0"
     inkscape:pageopacity="0.0"
     inkscape:pageshadow="2"
     inkscape:zoom="0.5"
     inkscape:cx="370.6614"
     inkscape:cy="327.81234"
     inkscape:document-units="mm"
     inkscape:current-layer="layer1"
     showgrid="true"
     inkscape:window-width="1366"
     inkscape:window-height="702"
     inkscape:window-x="0"
     inkscape:window-y="27"
     inkscape:window-maximized="1"
     inkscape:snap-global="true"
     inkscape:snap-nodes="true"
     inkscape:snap-grids="true"
     inkscape:snap-bbox="false"
     showguides="false"
     inkscape:guide-bbox="true"
     fit-margin-top="0"
     fit-margin-left="0"
     fit-margin-right="0"
     fit-margin-bottom="0">
    <inkscape:grid
       type="xygrid"
       id="grid4136"
       originx="-156.70725px"
       originy="-483.43707px" />
    <sodipodi:guide
       orientation="1,0"
       position="248.29275,321.56293"
       id="guide5086" />
  </sodipodi:namedview>
  <metadata
     id="metadata7">
    <rdf:RDF>
      <cc:Work
         rdf:about="">
        <dc:format>image/svg+xml</dc:format>
        <dc:type
           rdf:resource="http://purl.org/dc/dcmitype/StillImage" />
        <dc:title></dc:title>
      </cc:Work>
    </rdf:RDF>
  </metadata>
  <g
     inkscape:label="Layer 1"
     inkscape:groupmode="layer"
     id="layer1"
     transform="translate(-41.462128,-37.706093)">
    <path
       d="M 172.84664,103.39835 A 65.692261,65.692261 0 0 1 107.22982,169.09057 65.692261,65.692261 0 0 1 41.462293,103.54924 65.692261,65.692261 0 0 1 106.92806,37.706483 65.692261,65.692261 0 0 1 172.84595,103.09659"
       sodipodi:open="true"
       sodipodi:end="6.2785917"
       sodipodi:start="0"
       sodipodi:ry="65.692261"
       sodipodi:rx="65.692261"
       sodipodi:cy="103.39835"
       sodipodi:cx="107.15438"
       sodipodi:type="arc"
       id="path4262"
       style="opacity:1;fill:#4c4c4c;fill-opacity:1;stroke:none;stroke-width:1;stroke-miterlimit:4;stroke-dasharray:none;stroke-opacity:1" />
    <path
       inkscape:connector-curvature="0"
       id="path4279"
       d="m 76.831666,80.197675 c -6.51196,0.0019 -9.0899,2.468266 -18.42627,2.551266 l 0,6.467303 c 7.93746,0.14706 -1.32263,22.636886 22.42293,22.680786 25.007154,0.0462 18.65706,-22.380446 26.423184,-22.571746 7.76616,0.1913 1.41591,22.617966 26.4232,22.571746 23.74569,-0.0439 14.48542,-22.533726 22.42292,-22.680786 l 0,-6.467303 c -9.33642,-0.08296 -11.91427,-2.549416 -18.42627,-2.551266 -17.12324,-0.0828 -22.53828,4.026276 -30.41985,4.06177 -7.881584,-0.03547 -13.296634,-4.144571 -30.419844,-4.06177 z m 2.9378,2.418459 c 6.76184,0.02533 19.88379,0.622188 19.69338,8.070299 -0.20561,8.042759 -4.77634,18.696597 -18.6154,18.851567 -12.71267,0.14236 -15.26027,-11.481028 -14.8823,-18.851567 0.33073,-6.4492 6.87169,-8.047384 12.54239,-8.069784 0.38842,-0.0015 0.81115,-0.0022 1.26193,-5.15e-4 z m 54.964094,0 c 0.45079,-0.0017 0.87351,-0.001 1.26194,5.15e-4 5.67073,0.02238 12.21165,1.620579 12.54238,8.069784 0.37797,7.370539 -2.16955,18.993917 -14.88229,18.851567 -13.83914,-0.15497 -18.40978,-10.808798 -18.6154,-18.851567 -0.19042,-7.448105 12.93149,-8.044974 19.69337,-8.070299 z"
       style="fill:#ffffff;fill-opacity:1;fill-rule:evenodd;stroke:none;stroke-width:3.77952743;stroke-linecap:butt;stroke-linejoin:miter;stroke-miterlimit:4;stroke-dasharray:none;stroke-opacity:1" />
    <path
       sodipodi:nodetypes="ssscscsss"
       style="fill:#ffffff;fill-opacity:1;fill-rule:evenodd;stroke:none;stroke-width:0.26458335px;stroke-linecap:butt;stroke-linejoin:miter;stroke-opacity:1"
       d="m 107.15162,98.625178 c -5.28154,-0.02877 -9.099711,18.488622 -9.149644,22.380752 -0.0515,4.01443 -8.043648,6.66074 -7.992919,10.61477 0.05111,3.98347 2.538846,5.17248 5.251506,5.32511 2.57901,2.49125 6.985947,5.27165 11.899647,5.27165 4.91369,0 9.05615,-2.68777 11.94633,-5.22487 2.35564,-0.0648 5.29866,-1.38842 5.27352,-5.29838 -0.0259,-4.02754 -7.97148,-6.59731 -8.01501,-10.54332 -0.0446,-4.04859 -3.87337,-22.496622 -9.21343,-22.525712 z"
       id="path4281"
       inkscape:connector-curvature="0" />
    <path
       sodipodi:nodetypes="cccccccccccccccsc"
       inkscape:connector-curvature="0"
       id="path4283"
       d="m 93.918655,139.51132 c -1.309621,2.68352 -6.079303,6.29558 -9.132623,5.94169 4.02248,1.19878 8.07507,0.14509 8.07507,0.14509 0.025,2.50046 -1.78729,5.0916 -2.90876,6.4879 3.44817,0.11852 6.66757,-2.28382 7.77693,-4.2569 1.15696,4.48218 -0.26906,6.96924 0.01,8.24163 3.340608,0.27059 5.853128,-6.72288 5.847178,-6.73675 0,0 1.03941,7.66141 4.50525,8.33447 1.08018,-0.81903 2.09393,-8.1933 2.09393,-8.1933 0,0 1.88229,5.3733 5.78035,6.53433 0.0916,-2.69672 0.1831,-7.947 0.1831,-7.947 0,0 4.81641,3.92683 7.77537,3.64613 -2.27942,-3.89698 -1.33518,-6.13726 -1.32882,-6.14489 0,0 4.78005,0.76737 6.99453,-0.0459 -4.82617,-0.61628 -6.64451,-3.24964 -9.11532,-5.95787 0.002,8.9e-4 -5.33094,5.90226 -13.41816,5.85863 -7.862723,-0.0424 -13.138025,-5.90726 -13.138025,-5.90726 z"
       style="fill:#ffffff;fill-opacity:1;fill-rule:evenodd;stroke:none;stroke-width:0.26458335px;stroke-linecap:butt;stroke-linejoin:miter;stroke-opacity:1" />
    <path
       sodipodi:nodetypes="csccccccccccccc"
       inkscape:connector-curvature="0"
       id="path4285"
       d="m 66.260128,78.650244 c 0,0 5.28844,-1.529461 11.72872,-1.433623 8.98006,0.133632 19.88961,2.813861 19.88961,2.813861 0,0 -6.41054,-4.812481 -1.36877,-8.483503 -3.04314,-0.530606 -5.13707,1.853522 -5.13707,1.853522 -2.52961,-1.565163 -2.90752,-3.723826 -2.58689,-5.34112 0,0 -2.74114,1.694992 -2.63993,3.686082 -3.05666,-1.1958 -5.67325,-4.181839 -5.34702,-6.391203 -2.00452,1.796539 -2.53316,5.31263 -2.53316,5.31263 -0.0493,0.131579 -5.55525,-2.879706 -5.26874,-6.748219 -2.54659,2.750976 -1.38024,8.107493 -1.38024,8.107493 -1.71833,-0.07943 -7.2022,-2.283123 -9.30233,-5.425302 -0.0305,2.516134 2.67825,6.681403 2.67825,6.681403 -4.29899,-0.133531 -4.88387,-1.117861 -6.64504,-2.601944 2.06467,4.643374 3.9539,6.639183 7.91261,7.969923 z"
       style="fill:#ffffff;fill-opacity:1;fill-rule:evenodd;stroke:none;stroke-width:0.26458335px;stroke-linecap:butt;stroke-linejoin:miter;stroke-opacity:1" />
    <path
       style="fill:#ffffff;fill-opacity:1;fill-rule:evenodd;stroke:none;stroke-width:0.26458335px;stroke-linecap:butt;stroke-linejoin:miter;stroke-opacity:1"
       d="m 147.97604,78.683317 c 0,0 -5.28848,-1.529461 -11.72879,-1.433623 -8.98011,0.133632 -19.88972,2.813861 -19.88972,2.813861 0,0 6.41057,-4.812481 1.36878,-8.483503 3.04315,-0.530606 5.13709,1.853522 5.13709,1.853522 2.52963,-1.565163 2.90754,-3.723826 2.5869,-5.34112 0,0 2.74116,1.694992 2.63995,3.686082 3.05668,-1.1958 5.67329,-4.181839 5.34705,-6.391203 2.00453,1.796539 2.53318,5.31263 2.53318,5.31263 0.0493,0.131579 5.55528,-2.879706 5.26877,-6.748219 2.5466,2.750976 1.38024,8.107493 1.38024,8.107493 1.71835,-0.07943 7.20224,-2.283123 9.30239,-5.425302 0.0305,2.516134 -2.67827,6.681403 -2.67827,6.681403 4.29901,-0.133531 4.8839,-1.117861 6.64508,-2.601944 -2.06468,4.643374 -3.95392,6.639183 -7.91265,7.969923 z"
       id="path4287"
       inkscape:connector-curvature="0"
       sodipodi:nodetypes="csccccccccccccc" />
  </g>
</svg>
