<?xml version="1.0" encoding="UTF-8" standalone="no"?>
<!-- Created with Inkscape (http://www.inkscape.org/) -->

<svg
   xmlns:dc="http://purl.org/dc/elements/1.1/"
   xmlns:cc="http://creativecommons.org/ns#"
   xmlns:rdf="http://www.w3.org/1999/02/22-rdf-syntax-ns#"
   xmlns:svg="http://www.w3.org/2000/svg"
   xmlns="http://www.w3.org/2000/svg"
   xmlns:xlink="http://www.w3.org/1999/xlink"
   xmlns:sodipodi="http://sodipodi.sourceforge.net/DTD/sodipodi-0.dtd"
   xmlns:inkscape="http://www.inkscape.org/namespaces/inkscape"
   width="271.19791mm"
   height="227.94978mm"
   viewBox="0 0 271.19791 227.94978"
   id="svg14153"
   version="1.1"
   inkscape:version="0.91+devel r13893"
   sodipodi:docname="mockup.svg">
  <defs
     id="defs14155">
    <linearGradient
       inkscape:collect="always"
       xlink:href="#linearGradient9167"
       id="linearGradient106969"
       gradientUnits="userSpaceOnUse"
       gradientTransform="matrix(0.11873984,0,0,1.6168981,74.731238,389.93587)"
       x1="368"
       y1="-119.48139"
       x2="368"
       y2="-292.65454" />
    <linearGradient
       inkscape:collect="always"
       id="linearGradient9167">
      <stop
         style="stop-color:#ffffff;stop-opacity:1"
         offset="0"
         id="stop9169" />
      <stop
         style="stop-color:#e7e8e9;stop-opacity:0;"
         offset="1"
         id="stop9171" />
    </linearGradient>
    <filter
       inkscape:collect="always"
       style="color-interpolation-filters:sRGB"
       id="filter14907"
       x="-0.02829913"
       width="1.0565983"
       y="-0.029318919"
       height="1.0586378">
      <feGaussianBlur
         inkscape:collect="always"
         stdDeviation="5.424"
         id="feGaussianBlur14909" />
    </filter>
  </defs>
  <sodipodi:namedview
     id="base"
     pagecolor="#ffffff"
     bordercolor="#666666"
     borderopacity="1.0"
     inkscape:pageopacity="0.0"
     inkscape:pageshadow="2"
     inkscape:zoom="1"
     inkscape:cx="614.28571"
     inkscape:cy="484.59451"
     inkscape:document-units="mm"
     inkscape:current-layer="layer1"
     showgrid="false"
     inkscape:window-width="2560"
     inkscape:window-height="1397"
     inkscape:window-x="2560"
     inkscape:window-y="0"
     inkscape:window-maximized="1"
     showborder="false"
     fit-margin-top="0"
     fit-margin-left="0"
     fit-margin-right="0"
     fit-margin-bottom="0" />
  <metadata
     id="metadata14158">
    <rdf:RDF>
      <cc:Work
         rdf:about="">
        <dc:format>image/svg+xml</dc:format>
        <dc:type
           rdf:resource="http://purl.org/dc/dcmitype/StillImage" />
        <dc:title></dc:title>
      </cc:Work>
    </rdf:RDF>
  </metadata>
  <g
     inkscape:label="Layer 1"
     inkscape:groupmode="layer"
     id="layer1"
     transform="translate(0,-69.050217)">
    <rect
       style="display:inline;fill:#d1d3d4;fill-opacity:1;stroke:none;stroke-width:0.26458332"
       id="rect3683"
       width="271.19791"
       height="227.94978"
       x="0"
       y="-297"
       transform="scale(1,-1)"
       inkscape:export-filename="/home/duffy/SparkleShare/nextweb-assets/Mockups/Community Hubs/Design/design-hub-idea_notes.png"
       inkscape:export-xdpi="90"
       inkscape:export-ydpi="90" />
    <path
       style="display:inline;fill:#60605b;fill-opacity:1;stroke:none;stroke-width:0.99999994;filter:url(#filter14907);opacity:0.17"
       d="m 282,196.56445 0,114 0,330 460,0 0,-330 0,-114 -460,0 z"
       transform="matrix(0.26458333,0,0,0.26458333,0.52916666,69.579384)"
       id="rect14822"
       inkscape:connector-curvature="0" />
    <rect
       style="display:inline;fill:url(#linearGradient106969);fill-opacity:1;stroke:none;stroke-width:0.26458332"
       id="rect9546"
       width="121.70834"
       height="87.3125"
       x="74.612503"
       y="151.2206"
       inkscape:export-filename="/home/duffy/SparkleShare/nextweb-assets/Mockups/Community Hubs/Design/design-hub-idea_notes.png"
       inkscape:export-xdpi="90"
       inkscape:export-ydpi="90" />
    <rect
       inkscape:export-ydpi="90"
       inkscape:export-xdpi="90"
       inkscape:export-filename="/home/duffy/SparkleShare/nextweb-assets/Mockups/Community Hubs/Design/design-hub-idea_notes.png"
       style="display:inline;fill:#ffffff;fill-opacity:1;stroke:#d1d3d4;stroke-width:0.32856828;stroke-linecap:round;stroke-linejoin:round;stroke-miterlimit:4;stroke-dasharray:none;stroke-opacity:1"
       id="rect14005"
       width="105.50477"
       height="12.371431"
       x="83.37574"
       y="158.90822" />
    <text
       inkscape:export-ydpi="90"
       inkscape:export-xdpi="90"
       inkscape:export-filename="/home/duffy/SparkleShare/nextweb-assets/Mockups/Community Hubs/Design/design-hub-idea_notes.png"
       sodipodi:linespacing="125%"
       id="text14007"
       y="166.68071"
       x="86.504311"
       style="font-style:normal;font-variant:normal;font-weight:normal;font-stretch:normal;font-size:4.66783094px;line-height:125%;font-family:'Droid Sans';-inkscape-font-specification:'Droid Sans';text-align:start;letter-spacing:0px;word-spacing:0px;writing-mode:lr-tb;text-anchor:start;display:inline;fill:#a7a9ac;fill-opacity:1;stroke:none;stroke-width:0.26458332"
       xml:space="preserve"><tspan
         id="tspan14009"
         style="font-style:normal;font-variant:normal;font-weight:normal;font-stretch:normal;font-size:4.58611107px;line-height:125%;font-family:'Droid Sans';-inkscape-font-specification:'Droid Sans';text-align:start;writing-mode:lr-tb;text-anchor:start;fill:#a7a9ac;stroke-width:0.26458332"
         y="166.68071"
         x="86.504311"
         sodipodi:role="line">Fedora Account System Username</tspan></text>
    <text
       xml:space="preserve"
       style="font-style:normal;font-variant:normal;font-weight:normal;font-stretch:normal;font-size:4.66783094px;line-height:125%;font-family:'Droid Sans';-inkscape-font-specification:'Droid Sans';text-align:start;letter-spacing:0px;word-spacing:0px;writing-mode:lr-tb;text-anchor:start;display:inline;fill:#c3c4c6;fill-opacity:1;stroke:none;stroke-width:0.26458332;"
       x="120.10639"
       y="234.14946"
       id="text14011"
       sodipodi:linespacing="125%"
       inkscape:export-filename="/home/duffy/SparkleShare/nextweb-assets/Mockups/Community Hubs/Design/design-hub-idea_notes.png"
       inkscape:export-xdpi="90"
       inkscape:export-ydpi="90"><tspan
         sodipodi:role="line"
         x="120.10639"
         y="234.14946"
         style="font-style:normal;font-variant:normal;font-weight:normal;font-stretch:normal;font-size:4.23333311px;line-height:125%;font-family:'Droid Sans';-inkscape-font-specification:'Droid Sans';text-align:start;writing-mode:lr-tb;text-anchor:start;fill:#c3c4c6;fill-opacity:1;stroke-width:0.26458332;"
         id="tspan14013">Need an account?</tspan></text>
    <rect
       y="180.07489"
       x="83.37574"
       height="12.371431"
       width="105.50477"
       id="rect14015"
       style="display:inline;fill:#ffffff;fill-opacity:1;stroke:#d1d3d4;stroke-width:0.32856828;stroke-linecap:round;stroke-linejoin:round;stroke-miterlimit:4;stroke-dasharray:none;stroke-opacity:1"
       inkscape:export-filename="/home/duffy/SparkleShare/nextweb-assets/Mockups/Community Hubs/Design/design-hub-idea_notes.png"
       inkscape:export-xdpi="90"
       inkscape:export-ydpi="90" />
    <text
       xml:space="preserve"
       style="font-style:normal;font-variant:normal;font-weight:normal;font-stretch:normal;font-size:4.66783094px;line-height:125%;font-family:'Droid Sans';-inkscape-font-specification:'Droid Sans';text-align:start;letter-spacing:0px;word-spacing:0px;writing-mode:lr-tb;text-anchor:start;display:inline;fill:#a7a9ac;fill-opacity:1;stroke:none;stroke-width:0.26458332"
       x="86.504311"
       y="187.84738"
       id="text14017"
       sodipodi:linespacing="125%"
       inkscape:export-filename="/home/duffy/SparkleShare/nextweb-assets/Mockups/Community Hubs/Design/design-hub-idea_notes.png"
       inkscape:export-xdpi="90"
       inkscape:export-ydpi="90"><tspan
         sodipodi:role="line"
         x="86.504311"
         y="187.84738"
         style="font-style:normal;font-variant:normal;font-weight:normal;font-stretch:normal;font-size:4.58611107px;line-height:125%;font-family:'Droid Sans';-inkscape-font-specification:'Droid Sans';text-align:start;writing-mode:lr-tb;text-anchor:start;fill:#a7a9ac;stroke-width:0.26458332"
         id="tspan14019">Password</tspan></text>
    <text
       inkscape:export-ydpi="90"
       inkscape:export-xdpi="90"
       inkscape:export-filename="/home/duffy/SparkleShare/nextweb-assets/Mockups/Community Hubs/Design/design-hub-idea_notes.png"
       sodipodi:linespacing="125%"
       id="text14021"
       y="209.80779"
       x="84.916817"
       style="font-style:normal;font-variant:normal;font-weight:normal;font-stretch:normal;font-size:4.66783094px;line-height:125%;font-family:'Droid Sans';-inkscape-font-specification:'Droid Sans';text-align:start;letter-spacing:0px;word-spacing:0px;writing-mode:lr-tb;text-anchor:start;display:inline;fill:#c3c4c6;fill-opacity:1;stroke:none;stroke-width:0.26458332;"
       xml:space="preserve"><tspan
         id="tspan14023"
         style="font-style:normal;font-variant:normal;font-weight:normal;font-stretch:normal;font-size:4.23333311px;line-height:125%;font-family:'Droid Sans';-inkscape-font-specification:'Droid Sans';text-align:start;writing-mode:lr-tb;text-anchor:start;fill:#c3c4c6;fill-opacity:1;stroke-width:0.26458332;"
         y="209.80779"
         x="84.916817"
         sodipodi:role="line">Forget password?</tspan></text>
    <rect
       transform="scale(-1)"
       style="display:inline;fill:#3c6eb4;fill-opacity:1;stroke:none;stroke-width:0.26458332"
       id="rect10895-3"
       width="34.395832"
       height="8.9958334"
       x="-188.64792"
       y="-211.28101"
       ry="1.3229166"
       rx="1.7447162"
       inkscape:export-filename="/home/duffy/SparkleShare/nextweb-assets/Mockups/Community Hubs/Design/design-hub-idea_notes.png"
       inkscape:export-xdpi="90"
       inkscape:export-ydpi="90" />
    <text
       inkscape:export-ydpi="90"
       inkscape:export-xdpi="90"
       inkscape:export-filename="/home/duffy/SparkleShare/nextweb-assets/Mockups/Community Hubs/Design/design-hub-idea_notes.png"
       sodipodi:linespacing="125%"
       id="text14109"
       y="208.48488"
       x="164.29181"
       style="font-style:normal;font-variant:normal;font-weight:normal;font-stretch:normal;font-size:4.66783094px;line-height:125%;font-family:'Droid Sans';-inkscape-font-specification:'Droid Sans';text-align:start;letter-spacing:0px;word-spacing:0px;writing-mode:lr-tb;text-anchor:start;display:inline;fill:#ffffff;fill-opacity:1;stroke:none;stroke-width:0.26458332"
       xml:space="preserve"><tspan
         id="tspan14111"
         style="font-style:normal;font-variant:normal;font-weight:normal;font-stretch:normal;font-size:4.58611107px;line-height:125%;font-family:'Droid Sans';-inkscape-font-specification:'Droid Sans';text-align:start;writing-mode:lr-tb;text-anchor:start;fill:#ffffff;stroke-width:0.26458332"
         y="208.48488"
         x="164.29181"
         sodipodi:role="line">Log In</tspan></text>
    <rect
       inkscape:export-ydpi="90"
       inkscape:export-xdpi="90"
       inkscape:export-filename="/home/duffy/SparkleShare/nextweb-assets/Mockups/Community Hubs/Design/design-hub-idea_notes.png"
       y="-151.2206"
       x="74.612503"
       height="30.1625"
       width="121.70834"
       id="rect14140"
       style="display:inline;fill:#3c6eb4;fill-opacity:1;stroke:none;stroke-width:0.26458332"
       transform="scale(1,-1)" />
    <g
       id="g14124"
       transform="matrix(0.50234062,0,0,0.50234062,102.96087,196.11573)"
       style="display:inline;stroke-width:0.52670103">
      <g
         id="g14144"
         transform="translate(-3.8637754)">
        <text
           inkscape:export-ydpi="90"
           inkscape:export-xdpi="90"
           inkscape:export-filename="/home/duffy/SparkleShare/nextweb-assets/Mockups/Community Hubs/Design/design-hub-idea_notes.png"
           sodipodi:linespacing="125%"
           id="text14126"
           y="-106.24033"
           x="57.602997"
           style="font-style:normal;font-weight:normal;font-size:36.20257187px;line-height:125%;font-family:Sans;letter-spacing:0px;word-spacing:0px;fill:#ffffff;fill-opacity:1;stroke:none;stroke-width:0.52670103"
           xml:space="preserve"><tspan
             style="font-style:normal;font-variant:normal;font-weight:normal;font-stretch:normal;font-size:27.97267151px;line-height:125%;font-family:comfortaa;-inkscape-font-specification:comfortaa;text-align:start;writing-mode:lr-tb;text-anchor:start;fill:#ffffff;fill-opacity:1;stroke-width:0.52670103"
             y="-106.24033"
             x="57.602997"
             id="tspan14128"
             sodipodi:role="line">hubs</tspan></text>
        <g
           style="stroke-width:0.52670103"
           inkscape:export-ydpi="90"
           inkscape:export-xdpi="90"
           inkscape:export-filename="/home/duffy/SparkleShare/nextweb-assets/Mockups/Community Hubs/Design/design-hub-idea_notes.png"
           transform="matrix(0.26008864,0,0,0.26008864,-162.51322,-160.22727)"
           id="g14130">
          <path
             inkscape:connector-curvature="0"
             d="m 799.33773,208.89468 0,4.61564 c 0,0.30924 -0.18707,0.49631 -0.5612,0.56121 l -0.0401,0 c -0.31687,0 -0.51158,-0.19661 -0.58411,-0.58984 l 0,-7.3186 c 0.0458,-0.42376 0.22524,-0.63564 0.5383,-0.63565 l 0.0859,0 c 0.31687,10e-6 0.52875,0.22525 0.63565,0.67574 l 2.62851,5.87549 c 0.0344,-0.13362 0.61083,-1.47555 1.72944,-4.0258 l 1.0766,-2.31927 c 0.12979,-0.13743 0.27105,-0.20615 0.42377,-0.20616 l 0.0859,0 c 0.31304,10e-6 0.49248,0.21189 0.5383,0.63565 l 0,7.3186 c -0.0725,0.39323 -0.26725,0.58984 -0.58412,0.58984 l -0.0401,0 c -0.37415,-0.0649 -0.56122,-0.25197 -0.56121,-0.56121 l 0,-4.62136 c -1.4202,3.21453 -2.16275,4.87334 -2.22765,4.97641 -0.15653,0.13744 -0.30924,0.20616 -0.45813,0.20616 -0.33596,0 -0.61275,-0.33978 -0.83036,-1.01933 l -1.85542,-4.15752 m -7.79387,-3.39015 5.3601,0 c 0.36268,0.0687 0.54402,0.2558 0.54402,0.56121 l 0,0.0859 c 0,0.31306 -0.21189,0.49249 -0.63565,0.5383 l -1.99286,0 0,6.82038 c 0,0.30924 -0.19089,0.49631 -0.57266,0.56121 l -0.0286,0 c -0.31688,0 -0.51158,-0.19661 -0.58411,-0.58984 l 0,-6.79175 -2.03867,0 c -0.39323,-0.0763 -0.58985,-0.28251 -0.58985,-0.61847 0.084,-0.37795 0.26343,-0.56693 0.53831,-0.56694"
             id="path14132"
             style="font-style:normal;font-variant:normal;font-weight:bold;font-stretch:expanded;font-size:11.72808552px;line-height:89.99999762%;font-family:Comfortaa;-inkscape-font-specification:'Comfortaa Bold Expanded';text-align:start;writing-mode:lr-tb;text-anchor:start;fill:#3c6eb4;fill-opacity:1;stroke:none;stroke-width:0.52670103" />
          <path
             inkscape:connector-curvature="0"
             d="m 807.77586,159.90439 c 0,-33.08386 -26.81923,-59.90405 -59.90309,-59.90405 -33.06851,0 -59.87718,26.79812 -59.90117,59.86183 l -0.002,-0.002 0,46.35579 0.002,0.002 c 0.0182,7.50719 6.10631,13.58472 13.61831,13.58472 0.0211,0 0.0422,-0.002 0.0643,-0.002 l 0.004,0.002 46.23777,0 0,0 c 33.07426,-0.0134 59.88006,-26.82403 59.88006,-59.89829 z"
             id="path14134"
             style="fill:#294172;fill-opacity:1;stroke-width:0.52670103" />
          <path
             inkscape:connector-curvature="0"
             d="m 765.46056,114.20011 c -15.52773,0 -28.11456,12.58684 -28.11456,28.11456 0,0.006 0,0.0125 0,0.0202 l 0,14.88103 -14.83401,0 c -0.003,0 -0.003,0 -0.005,0 -15.52869,0 -28.11457,12.52542 -28.11457,28.05123 0,15.52773 12.58588,28.11553 28.11457,28.11553 15.52677,0 28.11456,-12.58876 28.11456,-28.11553 0,-0.005 0,-0.0125 0,-0.0182 l 0,-14.94435 14.83305,0 c 0.003,0 0.005,0 0.006,0 15.52677,0 28.11457,-12.4621 28.11457,-27.98983 0,-15.52772 -12.5878,-28.11456 -28.11457,-28.11456 z m -28.1136,71.09192 c -0.0134,8.18365 -6.65324,14.81577 -14.83881,14.81577 -8.19516,0 -14.90021,-6.64459 -14.90021,-14.83976 0,-8.19612 6.70505,-14.9645 14.90021,-14.9645 0.008,0 0.0144,0.002 0.0201,0.002 l 12.71445,0 c 0.004,0 0.007,-0.002 0.01,-0.002 1.15717,0 2.09653,0.93649 2.09653,2.09365 0,9.6e-4 -9.6e-4,0.003 -9.6e-4,0.005 l 0,12.89004 -9.6e-4,0 z m 28.11264,-28.07714 c -0.005,0 -0.01,0 -0.0144,0 l -12.72308,0 c -0.002,0 -0.006,0 -0.006,0 -1.15909,0 -2.09557,-0.9384 -2.09557,-2.09557 l 0,-0.002 0,-12.82767 c 0.0144,-8.18653 6.65228,-14.81578 14.83784,-14.81578 8.19613,0 14.90213,6.64364 14.90213,14.84072 0.002,8.19517 -6.70504,14.90022 -14.90117,14.90022 z"
             id="path14136"
             style="fill:#3c6eb4;fill-opacity:1;stroke-width:0.52670103" />
          <path
             inkscape:connector-curvature="0"
             d="m 737.34696,157.21489 0,-14.88102 c 0,-0.008 0,-0.0144 0,-0.0202 0,-15.52773 12.58683,-28.11457 28.11456,-28.11457 2.35656,0 4.02994,0.26387 6.21186,0.83573 3.17885,0.83286 5.77624,3.43792 5.7772,6.47093 9.6e-4,3.66532 -2.65975,6.32988 -6.63596,6.32988 -1.89503,0 -2.57916,-0.3627 -5.35406,-0.3627 -8.18557,0 -14.82345,6.62925 -14.83784,14.81578 l 0,12.82767 0,0.002 c 0,1.15717 0.93648,2.09557 2.09557,2.09557 0,0 0.004,0 0.006,0 l 9.74382,0 c 3.63174,0 6.56304,2.90539 6.56591,6.54577 0,3.64325 -2.93513,6.54289 -6.56591,6.54289 l -11.84514,0 0,14.94434 c 0,0.006 0,0.0134 0,0.0202 0,15.52581 -12.58779,28.11361 -28.11457,28.11361 -2.35559,0 -4.02993,-0.26578 -6.2109,-0.83573 -3.17885,-0.8319 -5.7772,-3.43888 -5.77816,-6.47093 0,-3.66532 2.65976,-6.33084 6.63693,-6.33084 1.89311,0 2.57915,0.36366 5.35213,0.36366 8.18557,0 14.82537,-6.63021 14.83977,-14.81578 0,0 0,-12.89388 0,-12.89388 0,-1.15525 -0.93936,-2.09173 -2.09653,-2.09173 -0.002,0 -0.003,0 -0.006,0 l -9.74285,-0.002 c -3.63174,0 -6.56688,-2.89771 -6.56688,-6.53905 -0.002,-3.66436 2.96489,-6.5496 6.63597,-6.5496 l 11.77509,0 0,0 z"
             id="path14138"
             style="fill:#ffffff;stroke-width:0.52670103" />
        </g>
      </g>
    </g>
  </g>
</svg>
